<svg width="192" height="64" viewBox="0 0 192 64" fill="none" xmlns="http://www.w3.org/2000/svg">
<path d="M69.27 8.60904C69.27 3.19404 71.943 0.56604 76.837 0.56604C80.711 0.56604 83.611 2.49204 83.611 6.50204H81.051C81.051 3.98704 79.374 2.69604 76.86 2.69604C73.462 2.69604 71.876 4.46304 71.853 8.47304V8.72204C71.853 12.777 73.462 14.522 76.86 14.522C79.465 14.522 81.142 13.253 81.142 10.761H83.612C83.612 14.794 80.735 16.652 76.838 16.652C71.944 16.652 69.27 14.092 69.27 8.60904Z" fill="black"/>
<path d="M86.147 0H88.481V5.822H88.64C89.456 4.78 90.679 4.191 92.333 4.191C94.576 4.191 96.117 5.278 96.117 8.292V16.38H93.783V8.586C93.783 6.706 92.854 6.184 91.427 6.184C89.841 6.184 88.482 7.43 88.482 9.379V16.38H86.148V0H86.147Z" fill="black"/>
<path d="M108.961 14.726C108.553 14.726 108.168 14.499 108.168 13.933V7.83904C108.168 5.55104 106.65 4.19104 103.523 4.19104C100.668 4.19104 98.697 5.36904 98.697 7.49904C98.697 7.70304 98.697 7.86104 98.72 7.99704H100.986V7.70304C100.986 6.93304 101.484 6.07204 103.433 6.07204C105.404 6.07204 105.835 6.91004 105.835 8.06604V9.24404C101.349 9.24404 98.132 10.037 98.132 13.299C98.132 16.176 100.556 16.652 101.983 16.652C103.773 16.652 105.087 15.995 105.902 14.93H106.061C106.288 15.95 107.08 16.584 108.168 16.584C108.961 16.584 109.505 16.425 109.777 16.29V14.727H108.961V14.726ZM105.835 11.736C105.835 13.662 104.385 14.749 102.663 14.749C101.281 14.749 100.533 14.273 100.533 13.118C100.533 11.373 102.776 11.011 105.834 11.011V11.736H105.835Z" fill="black"/>
<path d="M111.385 4.46304H113.265L113.492 6.29804H113.628C114.036 5.23304 114.806 4.19104 116.369 4.19104C117.026 4.19104 117.479 4.37204 117.479 4.37204V6.59204H116.641C114.942 6.59204 113.718 7.49804 113.718 9.71804V16.379H111.385V4.46304Z" fill="black"/>
<path d="M120.038 13.9111V6.38906H118.588V4.46306H120.061L120.514 1.13306H122.372V4.46306H124.388V6.38906H122.372V13.6841C122.372 14.3641 122.689 14.7261 123.346 14.7261H124.388V16.3121C123.98 16.4931 123.21 16.6291 122.621 16.6291C120.65 16.6291 120.038 15.2701 120.038 13.9111Z" fill="black"/>
<path d="M136.758 10.104C136.758 5.91304 134.968 4.19104 131.57 4.19104C127.764 4.19104 125.883 6.13904 125.883 10.421C125.883 14.703 127.763 16.651 131.57 16.651C134.493 16.651 136.758 15.246 136.758 12.278H134.47C134.47 14.045 133.201 14.77 131.593 14.77C129.35 14.77 128.399 13.547 128.285 11.009H136.758V10.104ZM128.33 9.24404C128.557 7.02404 129.531 6.07204 131.57 6.07204C133.224 6.07204 134.334 6.95604 134.334 9.24404H128.33Z" fill="black"/>
<path d="M138.932 4.46304H140.812L141.039 6.29804H141.175C141.583 5.23304 142.353 4.19104 143.916 4.19104C144.573 4.19104 145.026 4.37204 145.026 4.37204V6.59204H144.188C142.489 6.59204 141.265 7.49804 141.265 9.71804V16.379H138.932V4.46304Z" fill="black"/>
<path d="M156.943 10.104C156.943 5.91304 155.153 4.19104 151.755 4.19104C147.949 4.19104 146.068 6.13904 146.068 10.421C146.068 14.703 147.948 16.651 151.755 16.651C154.678 16.651 156.943 15.246 156.943 12.278H154.655C154.655 14.045 153.386 14.77 151.778 14.77C149.535 14.77 148.584 13.547 148.47 11.009H156.943V10.104ZM148.515 9.24404C148.742 7.02404 149.716 6.07204 151.755 6.07204C153.409 6.07204 154.519 6.95604 154.519 9.24404H148.515Z" fill="black"/>
<path d="M166.911 0V5.822H166.775C166.005 4.712 164.827 4.191 163.173 4.191C160.477 4.191 158.619 6.094 158.619 10.421C158.619 14.771 160.409 16.651 163.331 16.651C164.872 16.651 166.231 16.017 167.001 14.793H167.16L167.387 16.379H169.245V0H166.911ZM166.911 10.558C166.911 13.209 166.05 14.681 163.988 14.681C161.836 14.681 161.02 13.526 161.02 10.558V10.354C161.02 7.341 161.858 6.163 163.988 6.163C166.027 6.163 166.911 7.681 166.911 10.377V10.558Z" fill="black"/>
<path d="M70.607 22.5861H73.122V30.3571V38.1281H70.607V30.3571V22.5861Z" fill="black"/>
<path d="M75.749 26.211H77.629L77.856 27.797H78.015C78.876 26.574 80.258 25.939 81.934 25.939C84.199 25.939 85.718 27.027 85.718 30.04V38.128H83.384V30.334C83.384 28.454 82.455 27.932 81.028 27.932C79.442 27.932 78.083 29.178 78.083 31.126V38.127H75.749V26.211Z" fill="black"/>
<path d="M88.005 34.8199C88.005 34.5709 88.028 34.4119 88.028 34.3899H90.316V34.5939C90.316 35.9759 91.607 36.5419 93.125 36.5419C94.484 36.5419 95.685 36.0439 95.685 34.9789C95.685 32.1469 88.299 33.7779 88.299 29.4059C88.299 27.2079 90.293 25.9399 93.193 25.9399C96.002 25.9399 97.747 27.3449 97.747 29.2029C97.747 29.3839 97.724 29.6109 97.724 29.6559H95.436V29.4969C95.436 28.5679 94.756 27.8199 92.989 27.8199C91.222 27.8199 90.678 28.5899 90.678 29.2249C90.678 31.6719 98.064 30.1089 98.064 34.6849C98.064 37.3359 95.912 38.4009 93.012 38.4009C89.569 38.3999 88.005 36.7459 88.005 34.8199Z" fill="black"/>
<path d="M100.715 35.659V28.137H99.265V26.211H100.738L101.191 22.881H103.049V26.211H105.065V28.137H103.049V35.432C103.049 36.112 103.366 36.474 104.023 36.474H105.065V38.06C104.657 38.241 103.887 38.377 103.298 38.377C101.326 38.377 100.715 37.018 100.715 35.659Z" fill="black"/>
<path d="M107.126 21.748H109.437V22.938V24.127H107.126V22.938V21.748Z" fill="black"/>
<path d="M107.126 26.2111H109.459V32.1701V38.1281H107.126V32.1701V26.2111Z" fill="black"/>
<path d="M112.812 35.659V28.137H111.362V26.211H112.835L113.288 22.881H115.146V26.211H117.163V28.137H115.146V35.432C115.146 36.112 115.463 36.474 116.12 36.474H117.162V38.06C116.754 38.241 115.984 38.377 115.395 38.377C113.424 38.377 112.812 37.018 112.812 35.659Z" fill="black"/>
<path d="M119.155 34.2991V26.2111H121.489V34.0051C121.489 35.8851 122.418 36.4071 123.845 36.4071C125.431 36.4071 126.79 35.1611 126.79 33.2131V26.2121H129.124V38.1291H127.244L127.017 36.5431H126.859C125.975 37.7661 124.616 38.4011 122.939 38.4011C120.673 38.4001 119.155 37.3131 119.155 34.2991Z" fill="black"/>
<path d="M132.476 35.659V28.137H131.026V26.211H132.499L132.952 22.881H134.81V26.211H136.827V28.137H134.81V35.432C134.81 36.112 135.127 36.474 135.784 36.474H136.826V38.06C136.418 38.241 135.648 38.377 135.059 38.377C133.088 38.377 132.476 37.018 132.476 35.659Z" fill="black"/>
<path d="M149.082 31.8529C149.082 27.6619 147.292 25.9399 143.894 25.9399C140.088 25.9399 138.207 27.8879 138.207 32.1699C138.207 36.4519 140.088 38.3999 143.894 38.3999C146.817 38.3999 149.082 36.9949 149.082 34.0269H146.794C146.794 35.7939 145.525 36.5189 143.917 36.5189C141.674 36.5189 140.723 35.2959 140.609 32.7579H149.082V31.8529ZM140.654 30.9919C140.881 28.7719 141.855 27.8199 143.894 27.8199C145.548 27.8199 146.658 28.7039 146.658 30.9919H140.654Z" fill="black"/>
<path d="M161.814 25.939C158.076 25.939 156.15 27.887 156.15 32.169C156.15 36.451 158.076 38.399 161.814 38.399C165.552 38.399 167.501 36.451 167.501 32.169C167.501 27.887 165.552 25.939 161.814 25.939ZM165.099 32.283C165.099 35.183 164.125 36.474 161.814 36.474C159.526 36.474 158.552 35.183 158.552 32.283V32.056C158.552 29.156 159.526 27.865 161.814 27.865C164.125 27.865 165.099 29.156 165.099 32.056V32.283Z" fill="black"/>
<path d="M170.241 28.137H168.519V26.211H170.241V24.467C170.241 23.04 170.853 21.567 173.027 21.567C173.661 21.567 174.386 21.703 174.817 21.861V23.492H173.661C172.936 23.492 172.573 23.855 172.573 24.534V26.211H174.816V28.137H172.573V38.128H170.24V28.137H170.241Z" fill="black"/>
<path d="M70.403 44.335H81.504V46.487H72.918V51.086H80.666V53.238H72.918V59.877H70.403V44.335Z" fill="black"/>
<path d="M83.225 56.048V47.96H85.559V55.754C85.559 57.634 86.488 58.156 87.915 58.156C89.501 58.156 90.86 56.91 90.86 54.962V47.96H93.194V59.877H91.313L91.086 58.291H90.927C90.043 59.514 88.684 60.149 87.008 60.149C84.743 60.149 83.225 59.061 83.225 56.048Z" fill="black"/>
<path d="M95.821 47.96H97.701L97.928 49.546H98.087C98.948 48.323 100.33 47.688 102.006 47.688C104.272 47.688 105.79 48.776 105.79 51.789V59.877H103.456V52.083C103.456 50.203 102.527 49.681 101.1 49.681C99.514 49.681 98.155 50.927 98.155 52.875V59.876H95.821V47.96Z" fill="black"/>
<path d="M116.256 43.496V49.318H116.12C115.35 48.208 114.172 47.687 112.518 47.687C109.822 47.687 107.964 49.59 107.964 53.917C107.964 58.267 109.754 60.147 112.676 60.147C114.217 60.147 115.576 59.512 116.346 58.289H116.505L116.732 59.875H118.59V43.495H116.256V43.496ZM116.256 54.054C116.256 56.705 115.395 58.177 113.333 58.177C111.181 58.177 110.365 57.022 110.365 54.054V53.85C110.365 50.837 111.203 49.659 113.333 49.659C115.372 49.659 116.256 51.177 116.256 53.873V54.054Z" fill="black"/>
<path d="M121.103 47.96H122.983L123.21 49.795H123.346C123.754 48.73 124.524 47.688 126.087 47.688C126.744 47.688 127.197 47.869 127.197 47.869V50.089H126.359C124.66 50.089 123.436 50.995 123.436 53.215V59.876H121.103V47.96Z" fill="black"/>
<path d="M139.091 58.223C138.683 58.223 138.298 57.996 138.298 57.43V51.336C138.298 49.048 136.78 47.688 133.653 47.688C130.798 47.688 128.827 48.866 128.827 50.996C128.827 51.2 128.827 51.358 128.85 51.494H131.116V51.2C131.116 50.43 131.614 49.569 133.563 49.569C135.534 49.569 135.965 50.407 135.965 51.563V52.741C131.479 52.741 128.262 53.534 128.262 56.796C128.262 59.673 130.686 60.149 132.113 60.149C133.903 60.149 135.217 59.492 136.032 58.427H136.191C136.418 59.446 137.21 60.081 138.298 60.081C139.091 60.081 139.635 59.923 139.907 59.787V58.224H139.091V58.223ZM135.965 55.232C135.965 57.158 134.515 58.245 132.793 58.245C131.411 58.245 130.663 57.769 130.663 56.614C130.663 54.87 132.906 54.507 135.964 54.507V55.232H135.965Z" fill="black"/>
<path d="M141.515 43.496H143.826V44.686V45.875H141.515V44.686V43.496Z" fill="black"/>
<path d="M141.515 47.96H143.848V53.918V59.877H141.515V53.918V47.96Z" fill="black"/>
<path d="M146.204 56.569C146.204 56.32 146.227 56.161 146.227 56.139H148.515V56.343C148.515 57.725 149.806 58.291 151.324 58.291C152.683 58.291 153.884 57.793 153.884 56.728C153.884 53.896 146.498 55.527 146.498 51.155C146.498 48.957 148.492 47.689 151.392 47.689C154.201 47.689 155.946 49.094 155.946 50.952C155.946 51.133 155.923 51.36 155.923 51.405H153.635V51.246C153.635 50.317 152.955 49.569 151.188 49.569C149.421 49.569 148.877 50.339 148.877 50.974C148.877 53.421 156.263 51.858 156.263 56.434C156.263 59.085 154.111 60.15 151.211 60.15C147.768 60.149 146.204 58.495 146.204 56.569Z" fill="black"/>
<path d="M158.642 43.496H160.952V44.686V45.875H158.642V44.686V43.496Z" fill="black"/>
<path d="M158.642 47.96H160.975V53.918V59.877H158.642V53.918V47.96Z" fill="black"/>
<path d="M163.49 47.96H165.37L165.597 49.546H165.756C166.617 48.323 167.999 47.688 169.676 47.688C171.941 47.688 173.459 48.776 173.459 51.789V59.877H171.126V52.083C171.126 50.203 170.197 49.681 168.77 49.681C167.184 49.681 165.825 50.927 165.825 52.875V59.876H163.492V47.96H163.49Z" fill="black"/>
<path d="M184.287 57.498H179.303C178.578 57.498 178.216 57.113 178.216 56.614C178.216 56.115 178.601 55.73 179.349 55.73H181.229C184.31 55.73 186.168 54.235 186.168 51.72C186.168 50.564 185.715 49.613 184.945 48.933C186.395 48.593 187.324 47.528 187.324 46.01H185.081C184.99 46.667 184.605 47.483 183.472 48.072C182.792 47.823 182.022 47.687 181.184 47.687C178.058 47.687 176.222 49.182 176.222 51.72C176.222 53.056 176.857 54.122 177.853 54.824C177.06 55.028 175.837 55.594 175.837 56.84C175.837 57.678 176.381 58.29 177.06 58.653C176.245 58.97 175.157 59.627 175.157 61.168C175.157 63.23 176.811 64 178.306 64H183.358C186.031 64 187.346 62.278 187.346 60.488C187.345 58.834 186.167 57.498 184.287 57.498ZM181.183 49.41C182.973 49.41 183.856 50.248 183.856 51.721C183.856 53.171 182.972 54.032 181.183 54.032C179.416 54.032 178.532 53.171 178.532 51.721C178.532 50.248 179.416 49.41 181.183 49.41ZM183.381 62.233H178.85C178.035 62.233 177.491 61.689 177.491 60.851C177.491 60.036 178.057 59.514 178.85 59.514H183.63C184.446 59.514 185.012 60.012 185.012 60.851C185.012 61.69 184.309 62.233 183.381 62.233Z" fill="black"/>
<path d="M37.095 61.3029L28.963 53.1709L20.832 61.3029L3.72 44.1899C1.321 41.7919 0 38.6019 0 35.2099C0 31.8179 1.321 28.6279 3.72 26.2289C6.119 23.8299 9.308 22.5089 12.701 22.5089C15.707 22.5089 18.554 23.5459 20.833 25.4519C23.111 23.5469 25.958 22.5089 28.964 22.5089C31.97 22.5089 34.817 23.5459 37.096 25.4519C39.374 23.5469 42.221 22.5089 45.227 22.5089C48.619 22.5089 51.809 23.8299 54.208 26.2289C59.16 31.1809 59.16 39.2379 54.208 44.1899L37.095 61.3029ZM30.662 51.4729L37.096 57.9069L52.51 42.4929C56.526 38.4769 56.526 31.9429 52.51 27.9279C50.565 25.9829 47.978 24.9109 45.227 24.9109C42.859 24.9109 40.613 25.7049 38.793 27.1659C42.877 32.1499 42.595 39.5399 37.944 44.1899L30.662 51.4729ZM12.7 24.9109C9.949 24.9109 7.363 25.9819 5.418 27.9279C3.473 29.8729 2.401 32.4599 2.401 35.2109C2.401 37.9619 3.472 40.5479 5.418 42.4939L20.832 57.9079L27.266 51.4739L19.983 44.1909C17.584 41.7919 16.263 38.6029 16.263 35.2099C16.263 32.2419 17.274 29.4289 19.134 27.1659C17.314 25.7039 15.068 24.9109 12.7 24.9109ZM28.964 24.9109C26.213 24.9109 23.627 25.9819 21.682 27.9279C19.737 29.8729 18.665 32.4599 18.665 35.2109C18.665 37.9619 19.736 40.5479 21.682 42.4939L28.964 49.7769L36.247 42.4939C40.263 38.4779 40.263 31.9439 36.247 27.9289C34.301 25.9819 31.715 24.9109 28.964 24.9109Z" fill="black"/>
<path d="M28.941 18.894C23.757 18.894 19.539 14.676 19.539 9.49197C19.539 4.30797 23.757 0.0899658 28.941 0.0899658C34.125 0.0899658 38.343 4.30797 38.343 9.49197C38.343 14.676 34.125 18.894 28.941 18.894ZM28.941 2.49197C25.081 2.49197 21.941 5.63197 21.941 9.49197C21.941 13.352 25.081 16.492 28.941 16.492C32.801 16.492 35.941 13.352 35.941 9.49197C35.941 5.63197 32.801 2.49197 28.941 2.49197Z" fill="black"/>
</svg>
